<svg preserveAspectRatio="none" width="100%" height="100%" overflow="visible" style="display: block;" viewBox="0 0 30 30" fill="none" xmlns="http://www.w3.org/2000/svg">
<g id="icon=telegramm, color=no, round=no">
<path id="Rectangle 1" d="M0 8C0 3.58172 3.58172 0 8 0H22C26.4183 0 30 3.58172 30 8V22C30 26.4183 26.4183 30 22 30H8C3.58172 30 0 26.4183 0 22V8Z" fill="var(--fill-0, #FFF4DC)"/>
<path id="Vector" d="M21 9.45162L18.7459 21.2192C18.7459 21.2192 18.4306 22.035 17.5642 21.6438L12.3634 17.5144L12.3393 17.5022C13.0418 16.849 18.4893 11.777 18.7274 11.547C19.0959 11.191 18.8671 10.979 18.4392 11.248L10.3926 16.5397L7.28823 15.458C7.28823 15.458 6.79969 15.2781 6.75269 14.8868C6.70508 14.4949 7.30431 14.2829 7.30431 14.2829L19.9599 9.14166C19.9599 9.14166 21 8.6684 21 9.45162V9.45162Z" fill="var(--fill-0, #1C3902)"/>
</g>
</svg>
