<svg preserveAspectRatio="none" width="100%" height="100%" overflow="visible" style="display: block;" viewBox="0 0 15 20" fill="none" xmlns="http://www.w3.org/2000/svg">
<g id="icon_15_">
<path id="Vector" d="M7.50621 0C3.36099 0 0 3.55088 0 7.9303C0 9.06132 0.224066 10.1266 0.622405 11.0998C0.634853 11.1392 0.659749 11.1787 0.672197 11.2181C0.709542 11.3102 0.759334 11.4154 0.809127 11.5075C0.834023 11.5469 0.846471 11.5864 0.871367 11.639C0.92116 11.7442 0.9834 11.8626 1.04564 11.9678C1.05809 11.9809 1.05809 11.9941 1.07054 12.0204C1.38174 12.5727 1.76763 13.0856 2.19087 13.5328L6.63484 19.5561C7.07052 20.148 7.917 20.148 8.35268 19.5561L12.7967 13.5459C13.2323 13.0856 13.6058 12.5727 13.9294 12.0204C14.6141 10.8236 15 9.42956 15 7.94345C15.0124 3.55088 11.6514 0 7.50621 0ZM7.50621 14.5849C4.07053 14.5849 1.28215 11.639 1.28215 8.00921C1.28215 4.37942 4.07053 1.4335 7.50621 1.4335C10.9419 1.4335 13.7303 4.37942 13.7303 8.00921C13.7303 11.639 10.9419 14.5849 7.50621 14.5849Z" fill="var(--fill-0, #D3803C)"/>
<path id="Vector_2" d="M3.63397 8.75901C4.82899 8.48283 6.23563 9.31137 7.18168 10.8501C7.18168 9.79797 7.18168 8.78531 7.18168 7.74635C6.60907 7.74635 6.0489 7.72005 5.50119 7.74635C4.86633 7.78581 4.51779 7.31236 4.53023 6.73369C4.55513 6.08928 4.53023 5.44486 4.53023 4.78729C4.53023 4.60317 4.55513 4.4322 4.74185 4.36644C4.92857 4.28753 5.05305 4.4059 5.16509 4.53741C5.48874 4.95826 5.82484 5.36595 6.16094 5.8131C6.47214 5.15553 6.77089 4.52426 7.06965 3.89299C7.10699 3.82723 7.14434 3.74833 7.16923 3.68257C7.23147 3.52475 7.33106 3.35378 7.50533 3.40639C7.62981 3.43269 7.76674 3.56421 7.82898 3.68257C8.11529 4.24808 8.3767 4.81359 8.65056 5.39225C8.7128 5.52377 8.77504 5.65528 8.84973 5.8131C9.19827 5.36595 9.52193 4.9451 9.84558 4.52426C9.95761 4.37959 10.0821 4.27438 10.2688 4.34014C10.4555 4.4059 10.4804 4.57686 10.4804 4.76098V6.82576C10.4804 7.39127 10.1443 7.74635 9.62151 7.74635C9.03645 7.74635 8.45139 7.74635 7.84143 7.74635V10.8501C8.63811 9.40343 9.79578 8.6801 11.3767 8.73271C11.414 9.20616 11.3145 9.64016 11.1775 10.061C10.6547 11.626 9.18583 12.6387 7.62981 12.6124C6.85803 12.5992 6.12359 12.5072 5.46384 12.0863C4.39331 11.4156 3.78335 10.4161 3.64642 9.10095C3.62152 8.99574 3.63397 8.87737 3.63397 8.75901Z" fill="var(--fill-0, #D3803C)"/>
</g>
</svg>
