<svg preserveAspectRatio="none" width="100%" height="100%" overflow="visible" style="display: block;" viewBox="0 0 20.0003 24" fill="none" xmlns="http://www.w3.org/2000/svg">
<g id="Group 1426">
<path id="Vector" d="M6.26142 8.15066C6.39919 7.93495 6.82594 7.16296 6.52992 6.28729C6.40202 5.91644 6.17108 5.59174 5.86537 5.35294C5.35528 4.90903 4.71494 4.6515 4.04558 4.62104C3.64048 4.60406 3.23628 4.67207 2.8579 4.82088C2.76147 4.85915 2.67899 4.927 2.62181 5.01509C2.56463 5.10318 2.53555 5.20721 2.53855 5.31287C2.54156 5.41853 2.57651 5.52066 2.6386 5.60521C2.7007 5.68976 2.78689 5.75259 2.88533 5.78507L2.89588 5.78865C3.36048 5.94122 3.78819 6.19259 4.15088 6.52622C4.15302 6.52817 4.15517 6.53008 4.15736 6.53189C4.25175 6.60719 4.33001 6.70147 4.38732 6.80891C4.2963 6.79003 4.20885 6.75632 4.1283 6.70908C4.11316 6.70055 4.09759 6.69287 4.08164 6.68606L1.99027 5.78855C1.89111 5.7456 1.78097 5.7367 1.67643 5.7632C1.57189 5.78971 1.4786 5.85018 1.41059 5.93552L1.375 5.97976C1.23833 6.1496 1.1017 6.31963 0.965092 6.48984C0.911005 6.55704 0.874618 6.63725 0.859384 6.72285C0.84415 6.80845 0.850573 6.89661 0.878044 6.97896C0.905515 7.06131 0.953124 7.13513 1.01635 7.1934C1.07958 7.25168 1.15633 7.29248 1.23933 7.31193L3.0719 7.74193L3.0769 7.74302C3.29734 7.78893 3.45899 7.82883 3.57736 7.86282C3.54367 7.86921 3.50667 7.87583 3.46595 7.88275C2.73856 8.00498 1.83687 7.95168 0.786313 7.72438C0.661842 7.69774 0.532114 7.72049 0.423454 7.788C0.314795 7.85552 0.235343 7.96274 0.201222 8.08792L0.0231425 8.74755C0.00149406 8.8267 -0.00111602 8.91003 0.0155344 8.99043C0.0321848 9.07084 0.0676028 9.14594 0.118773 9.20935C0.169943 9.27276 0.235351 9.32259 0.309427 9.35461C0.383503 9.38663 0.464054 9.39989 0.544224 9.39325L2.625 9.22445C2.74832 9.22 2.87179 9.22365 2.99464 9.23537C2.92849 9.27765 2.83322 9.33238 2.69606 9.4025C2.1 9.70502 1.36315 9.85538 0.505827 9.84489H0.499902C0.43408 9.84504 0.368931 9.85844 0.30818 9.88433C0.247428 9.91021 0.192264 9.94808 0.145839 9.99576C0.0994152 10.0434 0.0626406 10.1 0.0376171 10.1622C0.0125937 10.2244 -0.000188081 10.2911 2.09127e-06 10.3583C2.09127e-06 10.766 0.0910711 11.1191 0.270597 11.4076C0.35993 11.5465 0.465286 11.6738 0.584393 11.7869C0.702288 11.9061 0.787432 11.9919 0.834973 12.1419C0.84715 12.1804 0.875189 12.3384 0.724589 12.7529C0.698165 12.8251 0.696584 12.9042 0.720106 12.9774C0.743628 13.0506 0.790849 13.1134 0.853986 13.1555C0.917123 13.1976 0.992408 13.2164 1.06743 13.2089C1.14246 13.2014 1.21275 13.1681 1.26671 13.1143L6.19069 8.23751C6.2173 8.21128 6.24102 8.18216 6.26142 8.15066Z" fill="var(--fill-0, #D3803C)"/>
<path id="Vector_2" d="M12.7822 4.2521C12.548 4.10647 11.7122 3.65908 10.7924 4.01694C10.4032 4.1719 10.0663 4.43893 9.82259 4.78564C9.36713 5.36864 9.11447 6.08993 9.10445 6.83583C9.10023 7.28715 9.18643 7.73458 9.35773 8.1506C9.40048 8.25329 9.4733 8.33993 9.56618 8.39863C9.65906 8.45734 9.76745 8.48522 9.87646 8.47846C9.98547 8.47169 10.0898 8.43061 10.175 8.36085C10.2602 8.2911 10.3223 8.19608 10.3525 8.08886L10.3545 8.08233C10.3551 8.08057 10.3556 8.07881 10.356 8.07709C10.5045 7.54892 10.7607 7.05885 11.1078 6.63914C11.1097 6.63685 11.1115 6.63437 11.1132 6.63223C11.1984 6.51005 11.3113 6.41072 11.4421 6.34267C11.4291 6.4618 11.3935 6.57721 11.3374 6.68247C11.3294 6.69844 11.3222 6.71481 11.3159 6.73153L10.4252 9.10331C10.384 9.21176 10.3784 9.33094 10.4092 9.44294C10.4399 9.55494 10.5055 9.6537 10.5959 9.72436C10.6997 9.80585 10.8034 9.8874 10.907 9.96901L11.2056 10.2037C11.2652 10.2504 11.3339 10.2836 11.407 10.301V18.8372H9.89351L8.59148 13.5374L8.60795 13.5245C8.69291 13.457 8.75445 13.3635 8.78354 13.2576C8.81263 13.1518 8.80773 13.0392 8.76956 12.9364L7.9581 10.776C7.95174 10.7587 7.9444 10.7417 7.93613 10.7252C7.89245 10.6412 7.86217 10.5507 7.84646 10.4569C7.94988 10.5188 8.03974 10.6017 8.11048 10.7005L8.11584 10.7073C8.43033 11.0877 8.66265 11.5316 8.7976 12.0101L8.80031 12.0201C8.82801 12.123 8.88679 12.2143 8.96826 12.2811C9.04972 12.3479 9.14974 12.3868 9.25407 12.3921C9.35726 12.3996 9.46012 12.3735 9.54795 12.3177C9.63579 12.2618 9.70412 12.1791 9.74319 12.0812C9.90074 11.6994 9.97982 11.2887 9.97553 10.8744C9.96694 10.1897 9.73509 9.52751 9.31668 8.99261C9.09265 8.67329 8.78243 8.42756 8.42395 8.28546C7.57657 7.95539 6.80794 8.36741 6.5916 8.50213L1.59395 13.4347C1.54049 13.4873 1.50601 13.5569 1.49611 13.6321C1.4862 13.7073 1.50145 13.7837 1.53938 13.8489C1.57731 13.9142 1.63569 13.9644 1.70506 13.9915C1.77443 14.0186 1.85072 14.0209 1.92156 13.9981C2.31205 13.8717 2.46937 13.9003 2.51873 13.9183C2.66443 13.9717 2.74589 14.0613 2.85861 14.1856C2.96547 14.3107 3.08664 14.4223 3.21953 14.5179C3.49656 14.7102 3.83905 14.8141 4.23733 14.8266C4.30403 14.829 4.37053 14.8178 4.43292 14.7935C4.4953 14.7693 4.55229 14.7325 4.60054 14.6854C4.6485 14.6392 4.68694 14.5837 4.71359 14.5221C4.74024 14.4605 4.75456 14.3941 4.75571 14.3267C4.77334 13.451 4.94191 12.703 5.25668 12.1035C5.32937 11.965 5.38596 11.869 5.4293 11.8027C5.43698 11.9289 5.43674 12.0554 5.4286 12.1815L5.1986 14.3008C5.1897 14.3825 5.20021 14.4651 5.22923 14.5418C5.25825 14.6184 5.30492 14.6867 5.3653 14.741C5.42568 14.7953 5.49797 14.8339 5.57605 14.8535C5.65413 14.8731 5.7357 14.8733 5.81383 14.8538L6.46479 14.6917C6.58842 14.6611 6.69595 14.5834 6.76547 14.4745C6.835 14.3657 6.8613 14.2338 6.83901 14.1059C6.64908 13.0255 6.62501 12.103 6.76777 11.3623C6.77565 11.3217 6.78316 11.2848 6.79035 11.2512C6.81988 11.3733 6.85422 11.5397 6.89201 11.766C6.89201 11.7678 6.89257 11.7696 6.89294 11.7714L7.25591 13.6567C7.27245 13.742 7.31003 13.8216 7.3651 13.8879C7.42016 13.9543 7.49089 14.0051 7.57058 14.0357C7.65026 14.0663 7.73628 14.0756 7.82047 14.0628C7.90466 14.0499 7.98425 14.0153 8.05169 13.9622C8.11079 13.9158 8.16988 13.8694 8.22898 13.8229L9.46088 18.8372H7.06197C7.00629 18.8372 6.95289 18.8598 6.91352 18.9001C6.87414 18.9403 6.85202 18.9948 6.85202 19.0517C6.85202 19.1086 6.87414 19.1632 6.91352 19.2034C6.95289 19.2437 7.00629 19.2663 7.06197 19.2663H7.61874L8.03863 23.8056C8.04354 23.8588 8.06769 23.9082 8.10634 23.9441C8.14499 23.9801 8.19538 24 8.24764 24H12.9712C13.0235 24 13.0739 23.9801 13.1125 23.9442C13.1512 23.9082 13.1753 23.8588 13.1803 23.8056L13.6001 19.2663H14.1571C14.2128 19.2663 14.2662 19.2437 14.3056 19.2034C14.345 19.1632 14.3671 19.1086 14.3671 19.0517C14.3671 18.9948 14.345 18.9403 14.3056 18.9001C14.2662 18.8598 14.2128 18.8372 14.1571 18.8372H11.8268V10.2207C11.9407 10.1413 12.0194 10.0191 12.0458 9.88077L12.4442 7.81471C12.4446 7.8129 12.4449 7.81109 12.4453 7.80923C12.4958 7.50575 12.5405 7.29996 12.5771 7.1609C12.5904 7.2181 12.6051 7.2868 12.6206 7.3686C12.7774 8.17987 12.7512 9.19359 12.5424 10.3819C12.5192 10.5169 12.5471 10.656 12.6205 10.7708C12.6938 10.8856 12.8071 10.9676 12.9375 11.0003L13.6513 11.1775C13.7337 11.198 13.8198 11.1978 13.9022 11.1771C13.9846 11.1563 14.0609 11.1156 14.1246 11.0583C14.1884 11.001 14.2376 10.9289 14.2683 10.8481C14.299 10.7672 14.3101 10.68 14.3008 10.5938L14.0481 8.27021C14.0371 8.11194 14.0384 7.95303 14.052 7.79497C14.1341 7.91613 14.2084 8.04258 14.2745 8.17353C14.621 8.83191 14.8067 9.65476 14.8261 10.6191C14.8274 10.6901 14.8426 10.7602 14.8707 10.8253C14.8988 10.8903 14.9393 10.9489 14.9899 10.9978C15.0409 11.0474 15.1011 11.0862 15.1669 11.1119C15.2327 11.1376 15.3029 11.1497 15.3733 11.1474C15.806 11.1337 16.1779 11.0208 16.4785 10.812C16.6231 10.7081 16.7548 10.5868 16.871 10.4507C16.9964 10.3124 17.087 10.2129 17.2513 10.1528C17.3073 10.1322 17.4846 10.0995 17.9179 10.2397C17.9912 10.2634 18.0701 10.2611 18.142 10.2332C18.2138 10.2053 18.2743 10.1535 18.3136 10.086C18.353 10.0186 18.3689 9.93958 18.3588 9.86175C18.3487 9.78392 18.3132 9.71186 18.258 9.65724L12.7822 4.2521Z" fill="var(--fill-0, #D3803C)"/>
<path id="Vector_3" d="M19.4722 5.72781H19.4666C18.5247 5.73853 17.713 5.57454 17.0545 5.24013C16.9252 5.1767 16.7998 5.10505 16.6792 5.02561C16.8334 5.00684 16.9888 5.0006 17.1439 5.00692L19.4253 5.19237C19.5099 5.19923 19.5949 5.18515 19.6731 5.1513C19.7512 5.11746 19.8203 5.06486 19.8743 4.99797C19.9283 4.93107 19.9657 4.85185 19.9834 4.76702C20.0011 4.68219 19.9985 4.59425 19.9758 4.51067L19.7803 3.78726C19.7443 3.65508 19.6605 3.54184 19.5457 3.47057C19.431 3.3993 19.294 3.37534 19.1626 3.40356C18.0081 3.65369 17.0174 3.71208 16.218 3.57717C16.1375 3.56363 16.07 3.55091 16.0134 3.53904C16.1483 3.49728 16.3482 3.44517 16.6436 3.38406L16.649 3.38287L18.6573 2.91145C18.7449 2.89086 18.8259 2.84776 18.8927 2.78622C18.9595 2.72468 19.0097 2.64675 19.0388 2.5598C19.0678 2.47286 19.0746 2.37978 19.0586 2.28938C19.0426 2.19899 19.0042 2.11427 18.9472 2.04326L18.4588 1.43588C18.3866 1.34635 18.2881 1.28293 18.1778 1.25497C18.0676 1.22701 17.9515 1.236 17.8466 1.28062L15.5565 2.26345C15.539 2.27065 15.522 2.27892 15.5055 2.28824C15.4047 2.34846 15.2935 2.38817 15.1779 2.40518C15.2404 2.2695 15.334 2.15124 15.4508 2.06047C15.453 2.05856 15.4552 2.05666 15.4573 2.0547C15.8571 1.68724 16.3284 1.41037 16.8404 1.24229C16.8432 1.24138 16.846 1.24038 16.8487 1.23938L16.8537 1.23743C16.9578 1.20333 17.0489 1.13684 17.1142 1.04725C17.1795 0.957662 17.2157 0.849461 17.2178 0.737787C17.222 0.626277 17.1917 0.516264 17.1311 0.423366C17.0706 0.330468 16.983 0.259406 16.8808 0.22027C16.4685 0.0583904 16.0282 -0.0156336 15.5868 0.00274649C14.8576 0.0363181 14.16 0.31685 13.604 0.800141C13.2728 1.06001 13.0223 1.41235 12.8828 1.81458C12.5609 2.76676 13.0248 3.60506 13.1745 3.83908L18.646 9.27668C18.702 9.33201 18.7747 9.36626 18.8523 9.37382C18.9299 9.38138 19.0076 9.36181 19.0729 9.3183C19.1381 9.2748 19.187 9.20995 19.2115 9.13436C19.2359 9.05878 19.2345 8.97695 19.2075 8.90227C19.0443 8.45417 19.0681 8.27507 19.0859 8.219C19.1396 8.04977 19.2343 7.9541 19.3655 7.82171C19.495 7.69875 19.6096 7.56031 19.7067 7.40936C19.9015 7.09621 20.0003 6.71303 20.0003 6.27035C20.0005 6.1984 19.9867 6.12713 19.9596 6.06071C19.9325 5.9943 19.8927 5.93408 19.8426 5.8836C19.7939 5.83404 19.7361 5.79477 19.6725 5.76804C19.609 5.7413 19.5409 5.72763 19.4722 5.72781Z" fill="var(--fill-0, #D3803C)"/>
</g>
</svg>
